<?xml version="1.0" encoding="UTF-8"?>
<svg width="51.067mm" height="37.408mm" version="1.1" viewBox="0 0 51.067 37.408" xmlns="http://www.w3.org/2000/svg" xmlns:cc="http://creativecommons.org/ns#" xmlns:dc="http://purl.org/dc/elements/1.1/" xmlns:rdf="http://www.w3.org/1999/02/22-rdf-syntax-ns#">
 <metadata>
  <rdf:RDF>
   <cc:Work rdf:about="">
    <dc:format>image/svg+xml</dc:format>
    <dc:type rdf:resource="http://purl.org/dc/dcmitype/StillImage"/>
    <dc:title/>
   </cc:Work>
  </rdf:RDF>
 </metadata>
 <g transform="translate(-50.271 -123.99)">
  <path d="m67.906 123.99c-2.9341 2.1e-4 -5.6205 1.6664-6.9546 4.3134-3.4459 0.53379-5.9928 3.5604-5.9929 7.1215-8e-6 0.353 0.02538 0.70552 0.07596 1.0547-0.70094 0.72749-1.0836 1.6364-1.0837 2.574-4e-5 2.2538 2.1653 4.0808 4.8364 4.0809 0.85317-1.7e-4 1.6911-0.19075 2.4288-0.55242 0.26301 0.0305-1.6016-2.0384-0.80944-1.9924-1.6016-2.0384 2.8058 0.56722 4.1396-1.213-2.3898-0.4229 1.6945-0.91889 1.7948-0.91885 1.6659 2e-5 3.7383-2.195 6.1948-0.18824-2.4209-0.68379 1.0951 0.60531 2.621 1.3485 0.19137-1.8203 8.4007 5.2999 8.4007 5.9052-2e-6 6.7261-1.8202 10.358 5.1536 10.358 6.9738 1e-5 12.627-5.4525 12.627-12.179s-5.6534-12.179-12.627-12.179c-0.48889 6e-5 -0.97737 0.0275-1.463 0.0822-0.74996-4.3107-4.0495-7.4144-7.8822-7.4145-2.0645 1e-4 -4.0498 0.91123-5.5444 2.5446-1.4834-1.7435-3.6431-2.7461-5.9154-2.7461z" fill="#e6e6e6"/>
  <g fill="#230d74">
   <path transform="scale(.26458)" d="m220 570v40h40v-40zm15 15h10v10h-10z"/>
   <path d="m70.115 150.81v10.583h5.2917v-3.9688l2.6458 3.9688h5.2917c-1.3229-2.2049-2.6459-3.0868-3.9688-5.2917l3.9688-5.2917h-5.2917l-2.6458 3.9688v-3.9688z"/>
   <path d="m70.115 133.59-19.844 11.935 3.9688 1.3229 15.875-9.2604 15.875 9.2604 3.9688-1.3229z"/>
   <path d="m56.88 142.5v-4.8869h3.5266v2.9725z"/>
   <path d="m70.18 149.77v-7.276h2.2705l2.2705 1.819 2.2705-1.819h2.2705v7.276h-2.2705v-4.5475l-2.2705 1.819-2.2705-1.819v4.5475h-2.2705"/>
   <path d="m68.027 149.86v-1.819h-2.2705v-3.638h2.2705v-1.819h-6.8114v1.819h2.2705v3.638h-2.2705v1.819z"/>
   <path d="m58.738 159.29-1.7653-1.2094 0.21343 1.1383-2.988-1.4229 1.0671 2.0631-1.8497-0.21343 0.498 0.92486-1.9209-0.35572 1.1178 1.1826h5.6275z"/>
   <path d="m81.387 159.5 2.0631-1.4228-0.21343 1.1383 2.988-1.4229-1.0671 2.0631 1.8497-0.21343-0.498 0.92486 1.9209-0.35572-1.1178 1.1826h-3.9688z"/>
  </g>
 </g>
</svg>
